<svg width="1520" height="176" viewBox="0 0 1520 176" fill="none" xmlns="http://www.w3.org/2000/svg">
<path d="M84.4386 175.445C128.769 175.445 163.482 146.126 169.346 102.499H131.583C127.362 126.658 108.832 143.546 84.9077 143.546C56.0578 143.546 36.59 120.56 36.59 87.4877C36.59 54.6505 56.0578 31.899 84.9077 31.899C108.832 31.899 127.596 48.5522 131.583 72.711H169.346C163.482 29.5535 128.769 0 84.4386 0C37.0591 0 0 38.2319 0 87.4877C0 136.978 37.0591 175.445 84.4386 175.445Z" fill="black"/>
<path d="M229.892 171.926V100.623H302.837V171.926H338.489V3.51827H302.837V69.8964H229.892V3.51827H194.24V171.926H229.892Z" fill="black"/>
<path d="M485.716 171.926H523.948L461.088 3.51827H422.153L358.824 171.926H394.71L407.61 135.805H473.05L485.716 171.926ZM440.682 42.4538L463.199 107.425H417.696L440.682 42.4538Z" fill="black"/>
<path d="M654.234 171.926H689.182V3.51827H656.345V115.165L582.93 3.51827H544.464V171.926H577.067V54.416L654.234 171.926Z" fill="black"/>
<path d="M800.746 175.445C854.459 175.445 887.765 136.04 885.654 81.1548H798.87V109.536H847.657C842.966 130.411 827.251 145.187 802.388 145.187C768.613 145.187 750.552 120.325 750.552 87.9568C750.552 51.8359 771.193 31.899 798.401 31.899C820.918 31.899 836.398 44.7993 841.558 61.9216H883.543C872.519 25.3316 842.027 0 799.339 0C750.083 0 713.962 37.2937 713.962 87.0186C713.962 139.089 751.96 175.445 800.746 175.445Z" fill="black"/>
<path d="M1023.78 140.966H946.144V100.623H1015.1V69.8964H946.144V34.4791H1022.14V3.51827H910.493V171.926H1023.78V140.966Z" fill="black"/>
<path d="M1160.19 171.926V139.793H1087.01V3.51827H1051.36V171.926H1160.19Z" fill="black"/>
<path d="M1246.93 175.445C1295.71 175.445 1333.48 137.916 1333.48 87.4877C1333.48 37.0591 1295.71 0 1246.93 0C1198.38 0 1160.85 37.0591 1160.85 87.4877C1160.85 137.916 1198.38 175.445 1246.93 175.445ZM1246.93 143.546C1216.2 143.546 1197.44 118.449 1197.44 87.4877C1197.44 56.5269 1216.2 31.899 1246.93 31.899C1277.89 31.899 1296.65 56.5269 1296.65 87.4877C1296.65 118.449 1277.89 143.546 1246.93 143.546Z" fill="black"/>
<path d="M1435 175.445C1488.71 175.445 1522.02 136.04 1519.91 81.1548H1433.12V109.536H1481.91C1477.22 130.411 1461.5 145.187 1436.64 145.187C1402.86 145.187 1384.8 120.325 1384.8 87.9568C1384.8 51.8359 1405.44 31.899 1432.65 31.899C1455.17 31.899 1470.65 44.7993 1475.81 61.9216H1517.79C1506.77 25.3316 1476.28 0 1433.59 0C1384.33 0 1348.21 37.2937 1348.21 87.0186C1348.21 139.089 1386.21 175.445 1435 175.445Z" fill="black"/>
</svg>
