<svg width="1521" height="210" viewBox="0 0 1521 210" fill="none" xmlns="http://www.w3.org/2000/svg">
<path d="M130.154 205.678V167.367H42.906V4.89464H0.400391V205.678H130.154Z" fill="black"/>
<path d="M201.843 205.678V4.89464H159.338V205.678H201.843Z" fill="black"/>
<path d="M331.829 209.872C384.681 209.872 426.068 174.917 433.059 122.904H388.037C383.003 151.707 360.911 171.841 332.388 171.841C297.992 171.841 274.782 144.436 274.782 105.006C274.782 65.8566 297.992 38.7313 332.388 38.7313C360.911 38.7313 383.283 58.5859 388.037 87.389H433.059C426.068 35.9349 384.681 0.700012 331.829 0.700012C275.341 0.700012 231.157 46.2817 231.157 105.006C231.157 164.011 275.341 209.872 331.829 209.872Z" fill="black"/>
<path d="M597.805 168.765H505.244V120.666H587.459V84.0333H505.244V41.8074H595.848V4.89464H462.738V205.678H597.805V168.765Z" fill="black"/>
<path d="M761.56 205.678H803.226V4.89464H764.076V138.004L676.549 4.89464H630.687V205.678H669.557V65.5769L761.56 205.678Z" fill="black"/>
<path d="M998.598 143.317C998.598 113.675 979.582 97.4561 944.347 90.4651L909.951 83.4741C895.41 80.6776 882.826 74.8052 882.826 61.1027C882.826 47.1206 894.571 35.3756 915.264 35.3756C936.517 35.3756 951.059 49.6374 952.457 70.6105H995.522C992.725 28.6642 959.728 2.37786 914.705 2.37786C871.361 2.37786 839.761 28.1049 839.761 63.8991C839.761 97.1765 863.251 113.675 893.732 119.548L926.73 125.98C943.788 129.335 953.575 136.886 953.575 149.47C953.575 165.689 938.195 175.197 916.663 175.197C890.656 175.197 876.394 160.935 875.276 138.843H832.211C835.287 181.349 866.886 208.474 917.502 208.474C967.837 208.474 998.598 181.628 998.598 143.317Z" fill="black"/>
<path d="M1072.45 205.678V4.89464H1029.94V205.678H1072.45Z" fill="black"/>
<path d="M1244.38 205.678H1286.05V4.89464H1246.9V138.004L1159.37 4.89464H1113.51V205.678H1152.38V65.5769L1244.38 205.678Z" fill="black"/>
<path d="M1419.06 209.872C1483.1 209.872 1522.8 162.892 1520.29 97.4562H1416.82V131.293H1474.99C1469.39 156.181 1450.66 173.798 1421.01 173.798C1380.75 173.798 1359.21 144.156 1359.21 105.566C1359.21 62.5009 1383.82 38.7313 1416.26 38.7313C1443.11 38.7313 1461.56 54.1116 1467.71 74.5255H1517.77C1504.63 30.9014 1468.27 0.700012 1417.38 0.700012C1358.65 0.700012 1315.59 45.1631 1315.59 104.447C1315.59 166.528 1360.89 209.872 1419.06 209.872Z" fill="black"/>
</svg>
