<svg width="1520" height="178" viewBox="0 0 1520 178" fill="none" xmlns="http://www.w3.org/2000/svg">
<path d="M141.01 120.866C141.01 95.7448 124.895 81.9992 95.0338 76.0744L65.8838 70.1496C53.5602 67.7797 42.8956 62.8029 42.8956 51.1903C42.8956 39.3407 52.8492 29.387 70.3866 29.387C88.398 29.387 100.722 41.4736 101.907 59.248H138.403C136.033 23.6992 108.068 1.42195 69.9126 1.42195C33.1789 1.42195 6.39878 23.2252 6.39878 53.5602C6.39878 81.7622 26.3061 95.7448 52.1382 100.722L80.1033 106.172C94.5598 109.016 102.855 115.415 102.855 126.08C102.855 139.825 89.82 147.883 71.5716 147.883C49.5313 147.883 37.4447 135.796 36.4968 117.074H0C2.60691 153.097 29.387 176.085 72.2826 176.085C114.941 176.085 141.01 153.334 141.01 120.866Z" fill="black"/>
<path d="M238.325 173.715V36.0228H292.122V3.55488H148.742V36.0228H202.302V173.715H238.325Z" fill="black"/>
<path d="M393.714 109.727L454.384 3.55488H418.124L376.888 76.7854L336.362 3.55488H297.495L357.691 109.727V173.715H393.714V109.727Z" fill="black"/>
<path d="M583.267 173.715V141.247H509.325V3.55488H473.303V173.715H583.267Z" fill="black"/>
<path d="M722.466 142.432H644.022V101.67H713.698V70.6236H644.022V34.8378H720.807V3.55488H607.999V173.715H722.466V142.432Z" fill="black"/>
<path d="M877.594 177.27C931.866 177.27 965.518 137.455 963.385 81.9992H875.698V110.675H924.993C920.253 131.768 904.374 146.698 879.253 146.698C845.126 146.698 826.878 121.577 826.878 88.872C826.878 52.3752 847.733 32.2309 875.224 32.2309C897.976 32.2309 913.617 45.2655 918.831 62.5659H961.253C950.114 25.5951 919.305 0 876.172 0C826.404 0 789.907 37.6817 789.907 87.924C789.907 140.536 828.3 177.27 877.594 177.27Z" fill="black"/>
<path d="M1128.07 3.55488H1092.05V109.727C1092.05 130.82 1081.86 145.039 1058.16 145.039C1034.22 145.039 1024.03 130.82 1024.03 109.727V3.55488H988.009V109.016C988.009 149.305 1013.13 177.27 1058.16 177.27C1102.48 177.27 1128.07 149.305 1128.07 109.016V3.55488Z" fill="black"/>
<path d="M1198.55 173.715V3.55488H1162.52V173.715H1198.55Z" fill="black"/>
<path d="M1293.78 173.715C1346.63 173.715 1380.52 137.218 1380.52 87.687C1380.52 38.1557 1347.81 3.55488 1293.78 3.55488H1233.34V173.715H1293.78ZM1269.37 34.6008H1291.88C1325.77 34.6008 1343.54 53.7972 1343.54 87.687C1343.54 122.999 1325.77 142.669 1291.88 142.669H1269.37V34.6008Z" fill="black"/>
<path d="M1520 142.432H1441.56V101.67H1511.23V70.6236H1441.56V34.8378H1518.34V3.55488H1405.53V173.715H1520V142.432Z" fill="black"/>
</svg>
